<svg height="511pt" viewBox="-10 0 511 511.99951" width="511pt" xmlns="http://www.w3.org/2000/svg"><path d="m442.953125 267.28125h-.945313v-83.039062c0-32.464844-26.414062-58.878907-58.878906-58.878907h-9.976562c-4.046875-13.371093-18.777344-42.410156-71.148438-50.789062-51.417968-8.226563-58.585937-18.269531-58.644531-18.355469-.058594-.09375-.117187-.1875-.179687-.277344.632812-5.003906 3.140624-15.457031 13.023437-24.496094 14.882813-13.613281 41.375-18.917968 76.617187-15.332031 54.476563 5.535157 67.183594 21.820313 76.460938 33.710938 7.507812 9.625 15.269531 19.570312 38.3125 16.648437 4.109375-.519531 7.015625-4.273437 6.496094-8.382812-.523438-4.109375-4.269532-7.023438-8.386719-6.496094-14.5625 1.851562-17.714844-2.175781-24.597656-10.996094-10.320313-13.230468-25.921875-33.222656-86.769531-39.410156-40.433594-4.109375-70.238282 2.449219-88.585938 19.492188-12.9375 12.011718-16.472656 26.035156-17.429688 33.421874-.660156.609376-1.242187 1.3125-1.726562 2.101563-.066406.101563-7.234375 10.144531-58.652344 18.371094-52.371094 8.378906-67.101562 37.417969-71.148437 50.789062h-8.980469c-32.464844 0-58.878906 26.414063-58.878906 58.878907v25.691406c0 4.140625 3.355468 7.5 7.5 7.5 4.140625 0 7.5-3.359375 7.5-7.5v-25.691406c0-24.195313 19.683594-43.878907 43.878906-43.878907 17.703125.039063 11.359375.042969 29.929688 0 24.195312 0 43.882812 19.683594 43.882812 43.878907v83.039062h-117.691406v-29.414062c0-4.140626-3.355469-7.5-7.5-7.5-4.140625 0-7.5 3.359374-7.5 7.5v29.414062h-4.933594c-12.957031 0-23.5 10.542969-23.5 23.5v55.796875c0 12.957031 10.542969 23.5 23.5 23.5h4.933594v83.039063c0 32.46875 26.414062 58.882812 58.882812 58.882812h29.929688c22.039062 0 41.289062-12.171875 51.382812-30.144531 10.089844 17.972656 29.339844 30.144531 51.378906 30.144531h29.929688c22.039062 0 41.289062-12.171875 51.382812-30.144531 10.089844 17.972656 29.339844 30.144531 51.378907 30.144531h29.933593c32.464844 0 58.878907-26.414062 58.878907-58.882812v-16.710938c0-4.140625-3.355469-7.5-7.5-7.5s-7.5 3.359375-7.5 7.5v16.710938c0 24.199218-19.683594 43.882812-43.878907 43.882812h-29.933593c-24.195313 0-43.878907-19.683594-43.878907-43.882812v-83.039063h117.6875v38.394531c0 4.144532 3.359376 7.5 7.5 7.5 4.144532 0 7.5-3.355468 7.5-7.5v-38.394531h.945313c12.957031 0 23.5-10.542969 23.5-23.5v-55.796875c0-12.957031-10.542969-23.5-23.5-23.5zm-15.945313-83.039062v83.039062h-117.6875v-83.039062c0-24.195313 19.683594-43.878907 43.878907-43.878907h29.929687c24.195313 0 43.878906 19.683594 43.878906 43.878907zm-69.789062-58.878907c-.671875.179688-36.6875-3.179687-55.398438 30.144531-9.578124-17.054687-27.394531-28.882812-48.019531-30.050781 9.910157-13.964843 9.386719-29.9375 2.507813-45.992187 11.214844 3.769531 25.738281 7.105468 43.328125 9.921875 39.011719 6.242187 52.789062 24.964843 57.582031 35.976562zm-244.492188 0c4.792969-11.011719 18.574219-29.734375 57.585938-35.976562 31.4375-5.03125 53.078125-11.730469 63.546875-19.59375 14.214844 21.394531 19.332031 40.226562-.832031 55.566406h-12.519532c-22.039062 0-41.289062 12.171875-51.378906 30.148437-19.019531-33.867187-55.371094-29.875-56.402344-30.144531zm63.898438 58.878907c0-24.195313 19.6875-43.878907 43.882812-43.878907h29.929688c24.195312 0 43.882812 19.683594 43.882812 43.878907v83.039062h-117.695312zm-58.878906 312.757812h-29.929688c-24.199218 0-43.882812-19.683594-43.882812-43.882812v-83.039063h117.691406v83.039063c0 24.199218-19.683594 43.882812-43.878906 43.882812zm176.574218-43.882812c0 24.199218-19.6875 43.882812-43.882812 43.882812h-29.929688c-24.195312 0-43.882812-19.683594-43.882812-43.882812v-83.039063h117.691406v83.039063zm157.132813-106.539063c0 4.6875-3.8125 8.5-8.5 8.5h-418.953125c-4.6875 0-8.5-3.8125-8.5-8.5v-55.796875c0-4.683594 3.8125-8.5 8.5-8.5h418.953125c4.6875 0 8.5 3.816406 8.5 8.5zm0 0"/><path d="m446.648438 44.253906c4.144531 0 7.5-3.359375 7.5-7.5v-15.300781c0-4.140625-3.355469-7.5-7.5-7.5-4.144532 0-7.5 3.359375-7.5 7.5v15.300781c0 4.140625 3.355468 7.5 7.5 7.5zm0 0"/><path d="m484.226562 51.53125h-15.296874c-4.140626 0-7.5 3.359375-7.5 7.5 0 4.144531 3.359374 7.5 7.5 7.5h15.296874c4.144532 0 7.5-3.355469 7.5-7.5 0-4.140625-3.355468-7.5-7.5-7.5zm0 0"/><path d="m446.648438 73.816406c-4.144532 0-7.5 3.355469-7.5 7.5v15.296875c0 4.144531 3.355468 7.5 7.5 7.5 4.144531 0 7.5-3.355469 7.5-7.5v-15.296875c0-4.144531-3.359376-7.5-7.5-7.5zm0 0"/></svg>