<?xml version="1.0" encoding="utf-8"?>
<!-- Generator: Adobe Illustrator 23.0.3, SVG Export Plug-In . SVG Version: 6.00 Build 0)  -->
<svg version="1.1" id="Capa_1" xmlns="http://www.w3.org/2000/svg" xmlns:xlink="http://www.w3.org/1999/xlink" x="0px" y="0px"
	 viewBox="0 0 58 58" style="enable-background:new 0 0 58 58;" xml:space="preserve">
<g>
	<path d="M32.8,31.4c0.7-0.5,1.2-1.3,1.2-2.3v-2.6c0-1.3-0.9-2.3-2-2.6c-0.2-3.4-1.7-4.1-3-4.1c-0.9,0-1.5,0.3-2,0.8
		c-1-0.7-2.2-0.9-3.3-0.5c-0.7-3.1-3-5.4-5.8-5.4c-2.3,0-4.4,1.7-5.4,4.2c-0.5-0.2-1.1-0.3-1.6-0.3c-1.5,0-2.8,0.8-3.8,2.1
		C6.6,20.3,5.8,20,5,20c-2.1,0-3.8,2-4,4.5c-0.6,0.5-1,1.3-1,2.1v2.6c0,0.9,0.5,1.8,1.2,2.3C1.1,32.2,1,33,1,33.8
		c0,4.3,1.7,8.2,4.5,11.1l1.3,9.2c0.2,1.5,1.6,2.7,3.1,2.7h14.3c1.6,0,2.9-1.2,3.1-2.7l1.3-9.2C31.3,42,33,38.1,33,33.8
		C33,33,32.9,32.2,32.8,31.4z M26.6,44c-2.5,2.4-5.9,3.9-9.6,3.9S9.9,46.4,7.4,44L5.7,31.8h22.6L26.6,44z M3.4,29.8H2.7
		c-0.4,0-0.7-0.3-0.7-0.7v-2.6c0-0.4,0.3-0.7,0.7-0.7h28.6c0.4,0,0.7,0.3,0.7,0.7v2.6c0,0.4-0.3,0.7-0.7,0.7h-0.7L3.4,29.8L3.4,29.8
		z M29,21.8c0.6,0,0.9,1.1,1,2H28C28.2,21.8,28.7,21.8,29,21.8z M5,22c0.6,0,1.2,0.4,1.6,1.1c0.2,0.3,0.6,0.5,0.9,0.5
		c0.4,0,0.7-0.3,0.9-0.6c0.5-1.4,1.5-2.2,2.6-2.2c0.5,0,1.1,0.2,1.6,0.6c0.3,0.2,0.6,0.3,1,0.2c0.3-0.1,0.6-0.4,0.7-0.7
		c0.5-2.3,2.1-3.9,3.8-3.9c2.1,0,3.9,2.3,4,5.2c0,0.4,0.3,0.8,0.7,0.9c0.4,0.1,0.8,0,1.1-0.3C24,22.3,24.4,22,25,22
		c0.5,0,0.9,0.3,1.2,0.6C26.1,23,26,23.4,26,23.8H3.1C3.4,22.8,4.2,22,5,22z M3,33.8c0-0.7,0.1-1.3,0.2-2h0.5l1.2,9.1
		C3.7,38.8,3,36.4,3,33.8z M25.3,53.9c-0.1,0.6-0.6,1-1.1,1H9.9c-0.6,0-1.1-0.4-1.1-1l-1-7c2.6,1.9,5.8,3,9.2,3s6.6-1.1,9.2-3
		L25.3,53.9z M29.1,40.9l1.2-9.1h0.5c0.1,0.7,0.2,1.3,0.2,2C31,36.4,30.3,38.8,29.1,40.9z"/>
</g>
</svg>
