<?xml version="1.0" encoding="utf-8"?>
<!-- Generator: Adobe Illustrator 23.0.3, SVG Export Plug-In . SVG Version: 6.00 Build 0)  -->
<svg version="1.1" id="Calque_1" xmlns="http://www.w3.org/2000/svg" xmlns:xlink="http://www.w3.org/1999/xlink" x="0px" y="0px"
	 viewBox="0 0 595.28 841.89" style="enable-background:new 0 0 595.28 841.89;" xml:space="preserve">
<style type="text/css">
	.st0{fill:#FEFEFD;}
	.st1{fill:#FCC46B;}
	.st2{fill:#BA8E5E;}
	.st3{fill:#FAEC23;}
	.st4{fill:#43CA55;}
	.st5{fill:#06A752;}
</style>
<g>
	<g>
		<path class="st0" d="M68,531.89c0-145,0.02-290-0.1-435c0-3.42,0.67-4.1,4.09-4.09c151,0.11,302,0.11,453,0
			c3.42,0,4.1,0.67,4.1,4.09c-0.11,143.67-0.11,287.33,0,431c0,3.42-0.67,4.1-4.09,4.1C372.67,531.88,220.33,531.89,68,531.89z
			 M154.06,267.52c-8.15,15.53-13.15,31.93-12.79,49.6c0.18,8.51,2.87,16.27,9.65,21.99c1.4,1.18,2.79,3.73,4.92,2.43
			c1.89-1.15,0.72-3.51,0.57-5.45c-0.16-2.06-2.15-6.02,3.19-4.25c1.09,0.36,1.46-0.76,1.26-1.57c-0.94-3.83,0.18-7.34,0.92-11.08
			c0.82-4.2,4.03-8.12,2.12-12.79c-0.28-0.68,0.24-1.37,1.06-1.14c2.74,0.78,1.76-0.95,1.48-2.15c-0.45-1.91-1.06-3.79-1.39-5.72
			c-0.12-0.71-0.64-2.43,0.96-2.04c5,1.24,3.03-2.58,2.64-4.06c-0.83-3.15-1.89-7.52-0.36-9.12c3.05-3.2,1.12-6.42,1.91-9.48
			c1.79,0.28,3.73,0.28,5.15,1.55c2.8,2.51,5.19,1,7.14-0.94c1.44-1.43,1.1-4.16,3.17-5.39c1.92,0.84,2.43,5.41,6.02,2.1
			c0.9-0.83,1.88,0.72,2.63,1.63c2.92,3.51,2.96,3.48,7.31,3.58c0.15,0,0.34,0.12,0.43,0.24c2.36,3.2,6.14,4.13,9.26,6.11
			c3.79,2.39,9.42,1.16,11.78,6.11c0.08,0.16,1.22,0.13,1.34-0.09c2.3-4.32,3.2-0.45,4.83,0.64c1.71,1.15,3.28,2.76,5.93,3.12
			c-0.32-11.43-4.5-20.81-12.65-28.55c-6.97-6.62-15.05-11.25-24.4-13.34c-4.2-0.94-3.26-3.6-3.2-6.36
			c0.08-3.74,3.13-2.39,4.33-2.04c6.71,1.96,12.32-4.1,18.95-2.36c0.63,0.16,1.92-0.8,2.35-1.55c0.87-1.52,2.31-1.64,3.44-1.29
			c5.25,1.61,8.66-4.78,13.9-3.05c0.63,0.21,1.15-0.59,0.82-1.34c-1.91-4.37,1.19-1.66,2.47-1.89c1.62-0.29,4.83,1.77,4.52-1.56
			c-0.24-2.58,0.84-2.27,2.22-2.33c1.83-0.08,3.66,0.03,5.49,0c0.92-0.02,2.16,0.45,2.46-0.93c0.27-1.22-0.84-1.5-1.65-2.09
			c-7.37-5.4-15.65-9.28-24.32-11.41c-8.94-2.19-18.21-2.77-27.27,1.37c-8.21,3.76-13.67,10.03-18.49,17.2
			c0.04-7.47,2.14-14.13,8.41-19.55c-5.43-0.69-4.79-2.18-1.94-4.94c1.26-1.22,5.42-2.73,1.67-5.88c-0.21-0.18,0.05-1.43,0.44-1.72
			c4.05-3.11,2.74-9.02,6.48-12.3c0.53-0.46,1.69-2.12,0.35-2.28c-5.36-0.64-0.96-3.3-0.62-4.13c0.86-2.14,2.59-3.93,2.83-6.94
			c-3.12,0.74-5.71,1.18-8.19,1.97c-15.33,4.88-26.4,13.91-30.06,30.44c-2.24,10.14-0.93,20.02,1.07,29.98
			c1.45,7.24,4.61,13.96,6.89,22.52c-12.9-12.93-25.86-22.86-43.74-23.08c-16.33-0.21-35.38,14.24-39.64,26.18
			c2.74-0.84,5.21-1.65,7.72-2.35c0.75-0.21,2.12-1.54,2.27,0.13c0.31,3.53,2.25,1.5,3.39,1.08c2.81-1.03,5.56-2.78,7.91,0.73
			c-0.13,0.8-0.03,1.74-0.42,2.39c-7.05,11.88-9.11,24.92-8.94,38.46c0.02,1.65-1.13,4.11,0.99,4.87c2.2,0.78,3.55-1.48,4.65-3.04
			c1.51-2.12,2.19-5.65,5.76-2.13c0.25,0.24,1.7-0.12,1.76-0.39c1.11-4.69,6.06-4.97,8.67-7.77c2.66-2.86,7.53-3.01,8.77-7.44
			c0.07-0.24,0.74-0.56,0.77-0.53c4.18,4.7,3.29-1.51,4.21-2.37c1.67-1.55,2.28-4.25,3.35-6.51c2.62,2.52,2.48,2.41,4.53-0.39
			c2.72-3.7,4.4-8.77,10.36-8.61C153.94,266.64,154,267.08,154.06,267.52z M308.13,310.86c-0.27-2.17-0.09-4.29,0.3-6.45
			c1.08-6.13,0.95-12.26-0.49-18.32c-3.88-16.25-21.96-28.2-37.5-24.43c3.05,2.15,4.26,5.38,6.23,8.08c0.8,1.09,2.53,1.13,2.29,3.41
			c-0.32,3.04-2.76,2.26-3.95,2.38c-9.18,0.95-17.01,5.07-24.52,9.95c-1.3,0.84-3.62,1.46-3.36,3.27c0.26,1.88,2.84,1.02,4.12,1.98
			c1.09,0.82,4.84-1.49,3.12,2.74c-0.27,0.67,0.94,0.56,1.54,0.54c4.32-0.14,7.75,2.22,11.39,4.01c2.44,1.19,5.83,2.62,7.57,2.27
			c5.66-1.15,10.1,2.79,15.33,2.46c0.47-0.03,1.03,0.16,1.41,0.44c0.49,0.37,1.09,0.89,1.19,1.43c0.14,0.7-0.53,1.11-1.24,1.27
			c-1.13,0.27-2.24,0.67-3.38,0.84c-8.73,1.28-16.98,4.06-24.75,8.19c-7.74,4.12-14.49,9.23-16.18,18.66
			c-0.27,1.48-0.91,3.42,0.15,4.29c1.52,1.26,2.84-0.89,4.3-1.38c1.07-0.36,2.34-2.73,3.05-0.98c1.1,2.72,1.98,0.94,2.98,0.43
			c1.16-0.59,2.17-1.55,3.38-1.96c6.28-2.12,12.81-3.64,17.97-8.2c0.36-0.32,1.09-0.85,1.18-0.77c4.03,3.69,4.99-1.55,7.3-2.61
			c1.4-0.64,2.28-2.39,4.2-2.17c-0.17,2.7,5.33,3.3,2.57,6.97c-2.24,2.99-0.2,4.27,2.13,5.65c3.01,1.78,3.65-0.41,4.53-2.42
			c0.59-1.36,1.14-2.75,1.91-4.01c1.13-1.84,2.38-2.42,3.33,0.2c1.17,3.6,2.07,7.2,0.22,10.86c-0.06,0.12,0.03,0.33,0.09,0.48
			c2.43,5.94,2.63,12.29,3.49,18.53c0.1,0.73-0.38,2.06,0.75,1.99c3.65-0.24,2.05,1.89,1.63,3.39c-0.44,1.58-0.63,3.08,0.12,5.19
			c6.7-4.91,10.56-10.89,12.48-18.42c2.04-8.05,0.58-15.78-1.5-23.46c-0.57-2.09-0.02-2.3,1.63-3.33c2.15-1.33,2.79-0.66,3.79,0.96
			c1.75,2.85,4.33,4.78,6.8,6.98c5.63,5.02,11.09,9.83,17.55,13.95c3.19,2.03,8.6,1.87,9.77,7.24c1.4-10.63-0.75-20.35-5.77-28.92
			c-5.62-9.57-15-13.78-26.36-13.84c13.61-5.39,28.05-7.31,41.12-13.36c-5.6-8.78-20.58-14.39-30.92-11.39
			c-14.79,4.29-24.18,15.01-32.23,27.28C308.63,310.82,308.38,310.85,308.13,310.86z M218.82,460.76
			c-9.89,1.01-19.08,4.79-28.54,7.43c-6.93,1.93-13.61,4.77-20.48,6.94c-9.27,2.94-17.99,7.28-27.18,10.48
			c-3.2,1.11-6.18,3.29-9.69,3.2c-12.29-0.35-24.05,2.77-35.96,4.99c-6.35,1.19-11.93,4-17.08,7.77c-3.36,2.46-5.9,9.18-4.81,12.91
			c1.24,4.19,5.21,4.1,8.47,5.08c0.47,0.14,0.98,0.21,1.47,0.27c16.37,1.78,32.81,3.06,49.27,2.89c21.29-0.21,42.57-0.77,63.86-1.55
			c24.91-0.91,49.88-0.98,74.8,1.42c6.61,0.64,13.02,2.35,19.77,2.34c21.11-0.02,42.27,0.01,63.28,2.14
			c21.63,2.19,43.19-0.52,64.81,0.3c13.2,0.5,26.61-0.24,39.76-2.5c7.91-1.36,15.97-0.19,23.85-1.87c3.64-0.78,4.7-2.1,2.09-5.31
			c-3.2-3.94-7.06-6.9-11.52-9.34c-6.46-3.54-13.5-5.61-20.13-8.66c-8.26-3.79-17.11-5.26-25.9-6.79
			c-14.07-2.46-28.25-4.13-41.52-10.09c-8.29-3.72-16.9-6.77-25.48-9.81c-10.22-3.62-20.78-6.01-31.35-8.46
			c-9.67-2.24-19.46-3.77-29.19-5.21c-12.26-1.8-24.8-1.76-37.22-2.52c0.95-3.01,1.88-6.02,2.84-9.02c2.16-6.77,1.92-7.21-4.92-9.21
			c-0.62-0.18-1.66-0.31-1.37-1.79c5.44,1.56,7.33-1.9,8.62-6.23c0.52-1.75,1.29-3.43,1.85-5.17c2.15-6.66,2.02-6.88-4.34-9.45
			c-0.32-0.13-0.45-0.72-0.66-1.1c0.4-0.29,0.65-0.63,0.9-0.63c7.31-0.14,8.15-6.5,10.44-11.19c1.99-4.07-2.16-4.74-4.39-6.4
			c-1.84-1.36-0.87-2.05,0.7-2.64c3.3-1.24,8.48-8.3,7.71-11.45c-1.02-4.19-5.43-4.23-8.65-5.58c-1-0.42-2.4,0.07-3.38-0.37
			c-3.71-1.66-4.36,0.68-5.35,3.44c-1.86,5.16,0.05,11.17-5.38,15.8c-2.83,2.41-3.12,8.31-2.73,12.85c0.28,3.26,1.01,6.2-3.88,5.99
			c-0.97-0.04-1.83,0.92-1.91,2.03c-0.48,6.66-3.39,13.63,2.61,19.49c-7.25,1.06-7.88,0.68-8.84-6c-0.38-2.66-1.34-4.4-4.34-4.32
			c-1.61,0.04-3.15-0.07-2.38-2.46c1.67-5.2,0.57-10.55,0.78-15.83c0.12-2.97-0.47-5.32-4.34-5.04c-0.95,0.07-3.2,0.17-2.05-2.01
			c2.59-4.9,1.18-10.1,1.35-15.15c0.15-4.57-1.73-7.31-6.96-6.19c-0.95,0.2-2.37,0.61-2.91-0.96c3.09-2.92,4.54-15.79,2.34-19.38
			c-0.84-1.37-2.04-1.75-3.36-1.66c-2.78,0.18-3.32-0.77-2.75-3.5c1.11-5.35,1.17-12.2-2.27-15.22c-4.56-4.01-3.64-8.35-4.64-12.73
			c-0.29-1.3-0.6-2.59-0.94-3.88c-1.21-4.61-4.94-3.3-7.22-2.14c-3.38,1.72-10.29,0.79-8.91,6.92c1.04,4.58,2.54,10.63,9.39,10.7
			c0.15,1.99-1.26,2.42-2.19,2.73c-5.09,1.7-4.43,4.62-2.44,8.5c2.51,4.88,5.07,9.31,12.7,7.94c-2.95,3.82-8.85,1.51-8.52,6.56
			c0.23,3.44,2.18,6.69,2.79,10.02c1.07,5.89,4.99,6.43,10.51,6.11c-2.32,2.7-4.83,2.74-6.82,3.41c-2.61,0.87-3.18,2.38-2.4,4.49
			c2.19,5.91,2.7,12.69,9.61,17.36c-6.22,0.4-5.15,3.76-4.29,6.92c0.87,3.21,1.86,6.38,2.88,9.55c0.8,2.49,1.86,4.7,5.18,4.17
			c0.78-0.13,1.81-0.02,1.92,1.06c0.1,1.02-0.81,1.29-1.61,1.54c-2.16,0.69-4.8,0.7-5.87,3.18c-1.5,3.45,2.9,16.16,6.35,18.57
			c1.32,0.92,2.15,2.67,0.48,2.92C217.38,453.2,219.3,457.5,218.82,460.76z M417.76,169.58c-0.85,20.37,15.98,35.27,34.13,35.02
			c18.2-0.25,33.64-14.59,33.98-34.36c0.3-17.55-14-34.44-34.94-34.36C432.71,135.95,416.76,152.64,417.76,169.58z M451.73,219.14
			c-2.81,0-5.63,0.12-8.44-0.03c-3.43-0.19-4.31,1.06-2.62,4.05c3.06,5.41,6.18,10.79,9.18,16.23c1.26,2.28,2.3,1.97,3.41-0.01
			c3.13-5.57,6.22-11.17,9.36-16.73c1.67-2.96,0.53-3.73-2.46-3.55C457.37,219.27,454.55,219.13,451.73,219.14z M292.64,345.61
			c0.35-0.98,1.43-0.59,2.01-1.02c2.35-1.77,4.39-4.71,3.43-7.01c-1.03-2.47-4.7-4.65-7.41-3.86c-3.15,0.91-3.27,4.53-2.62,7.64
			c0.06,0.31,0.34,0.57,0.46,0.88c0.86,2.31,0.52,3.08-1.89,1.56c-2.55-1.61-4.11-0.19-4.99,2.08c-1.01,2.62-1.82,5.33-2.57,8.04
			c-0.6,2.17,0.02,4.1,2.27,4.85c2.73,0.92,5.4,3.82,8.44,0.2C294.47,353.34,295.43,349.43,292.64,345.61z M522.92,169.78
			c-6.5-3.81-12.61-7.4-18.72-10.98c-2.34-1.37-3.23-0.65-3.21,2.01c0.05,6.49,0.06,12.99-0.14,19.48
			c-0.06,1.87,0.62,2.97,2.09,1.98C509.31,177.97,516.65,175.14,522.92,169.78z M438.56,120.9c8.33,0,15.63,0,22.93,0
			c1.79,0,3.08-0.24,1.76-2.52c-3.45-5.96-6.81-11.97-10.25-17.93c-0.77-1.33-1.79-2.12-2.86-0.22
			C446.45,106.8,442.78,113.37,438.56,120.9z M401.67,157.3c-6.65,3.83-12.55,7.4-18.63,10.65c-3.27,1.75-2.27,3.27-0.04,4.55
			c6,3.45,12.13,6.69,18.67,10.27C401.67,174.3,401.67,166.27,401.67,157.3z M191.7,285.91c-4.27-0.02-9.61,3.31-9.73,6.06
			c-0.2,4.31,4.54,11.49,7.69,11.65c3.56,0.19,8.22-3.15,8.32-5.95C198.11,293.71,193.95,285.92,191.7,285.91z M196.56,318.93
			c5.26-0.11,9.44-2.5,9.36-5.35c-0.13-4.54-4.99-10.79-8.33-10.69c-5.27,0.15-8.52,2.47-8.55,6.08
			C189.02,313.47,193.19,319,196.56,318.93z M287.83,366.15c-0.06-1.89-7.1-5.91-10.27-5.87c-2.59,0.04-6.29,6-6.38,10.25
			c-0.04,2.32,5.93,6.32,9.17,6.13C282.08,376.56,287.9,368.38,287.83,366.15z M406.01,213.66c0.33,0.8-1.5,3.84,1.83,2.52
			c2.22-0.88,4.44-1.05,6.67-1.56c4.23-0.97,4.74-2.77,1.79-5.8c-1.8-1.85-3.72-3.59-5.69-5.26c-1-0.85-2.5-1.09-2.44,0.71
			C408.29,207.56,405.53,210.02,406.01,213.66z M483.83,211.43c3.38,4.17,7.99,2.72,11.43,4.76c1.83,1.08,3.02-0.73,2.29-2.33
			c-1.21-2.63-1.32-5.46-2.15-8.13c-0.86-2.8-2.07-3.54-4.38-1.02C488.82,207.08,486.29,209.15,483.83,211.43z M497.49,126.51
			c0.1-1.68-0.2-2.69-1.89-2.24c-3.28,0.88-6.55,1.8-9.83,2.67c-1.35,0.35-1.59,1.17-0.8,2.13c2.47,3.02,4.84,7.36,8.38,7.73
			c2.67,0.28,2.25-4.68,2.92-7.44C496.53,128.27,497.16,127.27,497.49,126.51z M408.31,138.17c4.31-2.13,6.8-5.53,9.58-8.54
			c1.33-1.45,0.96-2.17-1.21-2.9c-3.42-1.17-6.86-1.96-10.66-2.62C405.6,128.99,408.41,133.12,408.31,138.17z M189,281.41
			c-1.37-1.53-0.07-5.36-4.15-5.34c-3.85,0.02-7.36,2.72-6.75,5.57c0.54,2.56,1.82,5.33,5.05,4.79
			C185.64,286,189.1,285.91,189,281.41z"/>
		<path class="st1" d="M264.19,456.84c12.42,0.75,24.95,0.71,37.22,2.52c9.73,1.43,19.52,2.97,29.19,5.21
			c10.57,2.45,21.13,4.84,31.35,8.46c8.58,3.04,17.19,6.08,25.48,9.81c13.27,5.96,27.45,7.63,41.52,10.09
			c8.79,1.54,17.64,3,25.9,6.79c6.63,3.05,13.68,5.12,20.13,8.66c4.46,2.44,8.32,5.4,11.52,9.34c2.6,3.21,1.54,4.53-2.09,5.31
			c-7.87,1.68-15.93,0.51-23.85,1.87c-13.15,2.27-26.56,3.01-39.76,2.5c-21.62-0.83-43.18,1.88-64.81-0.3
			c-21.01-2.12-42.17-2.16-63.28-2.14c-6.75,0.01-13.16-1.7-19.77-2.34c-24.91-2.4-49.88-2.33-74.8-1.42
			c-21.29,0.78-42.57,1.33-63.86,1.55c-16.46,0.17-32.89-1.11-49.27-2.89c-0.49-0.05-1-0.12-1.47-0.27
			c-3.25-0.98-7.23-0.89-8.47-5.08c-1.1-3.72,1.45-10.44,4.81-12.91c5.14-3.77,10.73-6.59,17.08-7.77
			c11.91-2.22,23.68-5.34,35.96-4.99c3.51,0.1,6.49-2.08,9.69-3.2c9.18-3.2,17.91-7.54,27.18-10.48c6.87-2.18,13.55-5.01,20.48-6.94
			c9.46-2.64,18.65-6.42,28.54-7.43c0.21,1.64,0.34,3.3,0.66,4.92c0.99,5.08,3.57,7.86,9.3,7.31c4.79-0.46,9.66,0.03,14.48-0.2
			c5.94-0.28,7.25-1.96,6.67-7.83c-0.55-5.62-0.54-5.65,5.3-4.5C259.04,461.22,262.62,461.55,264.19,456.84z"/>
		<path class="st2" d="M264.19,456.84c-1.57,4.71-5.16,4.39-8.97,3.64c-5.84-1.15-5.84-1.11-5.3,4.5c0.57,5.87-0.73,7.54-6.67,7.83
			c-4.82,0.23-9.69-0.26-14.48,0.2c-5.73,0.55-8.3-2.24-9.3-7.31c-0.32-1.62-0.44-3.28-0.66-4.92c0.49-3.26-1.44-7.56,4.33-8.43
			c1.67-0.25,0.83-2-0.48-2.92c-3.44-2.41-7.84-15.12-6.35-18.57c1.08-2.48,3.71-2.49,5.87-3.18c0.8-0.25,1.72-0.52,1.61-1.54
			c-0.11-1.08-1.14-1.18-1.92-1.06c-3.32,0.53-4.38-1.68-5.18-4.17c-1.01-3.17-2.01-6.34-2.88-9.55c-0.86-3.16-1.93-6.52,4.29-6.92
			c-6.91-4.67-7.42-11.45-9.61-17.36c-0.78-2.11-0.21-3.61,2.4-4.49c1.99-0.67,4.5-0.71,6.82-3.41c-5.52,0.32-9.44-0.22-10.51-6.11
			c-0.61-3.33-2.56-6.58-2.79-10.02c-0.34-5.05,5.56-2.74,8.52-6.56c-7.63,1.38-10.19-3.05-12.7-7.94c-2-3.88-2.66-6.8,2.44-8.5
			c0.93-0.31,2.34-0.74,2.19-2.73c-6.85-0.07-8.35-6.12-9.39-10.7c-1.39-6.13,5.53-5.2,8.91-6.92c2.28-1.16,6-2.48,7.22,2.14
			c0.34,1.29,0.65,2.58,0.94,3.88c0.99,4.38,0.07,8.73,4.64,12.73c3.44,3.02,3.38,9.87,2.27,15.22c-0.57,2.73-0.03,3.68,2.75,3.5
			c1.32-0.09,2.52,0.29,3.36,1.66c2.2,3.59,0.75,16.46-2.34,19.38c0.54,1.57,1.95,1.16,2.91,0.96c5.23-1.12,7.11,1.62,6.96,6.19
			c-0.17,5.06,1.24,10.26-1.35,15.15c-1.15,2.18,1.1,2.08,2.05,2.01c3.87-0.28,4.46,2.07,4.34,5.04
			c-0.22,5.28,0.88,10.63-0.78,15.83c-0.77,2.39,0.77,2.5,2.38,2.46c3.01-0.08,3.96,1.66,4.34,4.32c0.97,6.69,1.59,7.06,8.84,6
			c-6-5.86-3.09-12.83-2.61-19.49c0.08-1.11,0.94-2.07,1.91-2.03c4.88,0.21,4.16-2.73,3.88-5.99c-0.39-4.55-0.1-10.44,2.73-12.85
			c5.43-4.63,3.53-10.64,5.38-15.8c0.99-2.76,1.64-5.1,5.35-3.44c0.98,0.44,2.38-0.05,3.38,0.37c3.22,1.35,7.62,1.39,8.65,5.58
			c0.77,3.14-4.41,10.21-7.71,11.45c-1.58,0.59-2.54,1.28-0.7,2.64c2.23,1.66,6.38,2.33,4.39,6.4c-2.29,4.69-3.13,11.05-10.44,11.19
			c-0.25,0-0.5,0.34-0.9,0.63c0.22,0.37,0.34,0.97,0.66,1.1c6.36,2.57,6.49,2.8,4.34,9.45c-0.56,1.74-1.33,3.42-1.85,5.17
			c-1.29,4.33-3.17,7.79-8.62,6.23c-0.29,1.48,0.75,1.61,1.37,1.79c6.83,2,7.08,2.44,4.92,9.21
			C266.08,450.82,265.14,453.83,264.19,456.84z"/>
		<path class="st3" d="M417.76,169.58c-1-16.94,14.95-33.64,33.17-33.7c20.94-0.07,35.23,16.82,34.94,34.36
			c-0.34,19.77-15.78,34.1-33.98,34.36C433.74,204.85,416.92,189.96,417.76,169.58z"/>
		<path class="st4" d="M184.16,229.81c4.82-7.17,10.27-13.44,18.49-17.2c9.06-4.15,18.34-3.57,27.27-1.37
			c8.67,2.13,16.95,6.01,24.32,11.41c0.82,0.6,1.92,0.87,1.65,2.09c-0.3,1.37-1.54,0.91-2.46,0.93c-1.83,0.03-3.66-0.08-5.49,0
			c-1.38,0.06-2.46-0.25-2.22,2.33c0.31,3.34-2.9,1.27-4.52,1.56c-1.28,0.23-4.38-2.48-2.47,1.89c0.33,0.76-0.19,1.55-0.82,1.34
			c-5.24-1.73-8.65,4.66-13.9,3.05c-1.13-0.35-2.57-0.23-3.44,1.29c-0.43,0.75-1.72,1.72-2.35,1.55
			c-6.63-1.73-12.24,4.32-18.95,2.36c-1.2-0.35-4.25-1.7-4.33,2.04c-0.06,2.76-0.99,5.43,3.2,6.36c9.35,2.09,17.43,6.71,24.4,13.34
			c8.15,7.74,12.33,17.12,12.65,28.55c-2.65-0.36-4.21-1.97-5.93-3.12c-1.63-1.09-2.52-4.96-4.83-0.64
			c-0.12,0.22-1.26,0.26-1.34,0.09c-2.36-4.95-7.99-3.71-11.78-6.11c-3.12-1.97-6.91-2.9-9.26-6.11c-0.09-0.12-0.28-0.24-0.43-0.24
			c-4.36-0.1-4.39-0.07-7.31-3.58c-0.76-0.91-1.73-2.46-2.63-1.63c-3.59,3.31-4.1-1.25-6.02-2.1c-0.05-2.46,1.52-3.69,3.37-5
			c2.88-2.04,3.34-5.24,2.61-8.42c-0.61-2.68-2.68-4.53-5.23-5.38c-3.35-1.12-6.26,0.85-9.29,1.88c-0.9-1.44-1.19-2.89-0.82-4.64
			C177.61,240.18,180.49,234.82,184.16,229.81z"/>
		<path class="st5" d="M184.16,229.81c-3.66,5.01-6.55,10.37-7.85,16.53c-0.37,1.75-0.08,3.21,0.82,4.64
			c-0.62,4.11-3.88,5.74-7.11,7.09c-2.23,0.93-3.54-1.48-5.26-2.39c-1.88-0.98-3.8-0.53-5.73-0.29c0-1.6-0.84-2.21-2.39-2.55
			c-2.89-0.62-5.71-1.58-8.57-2.37c-14.56-4-27.64-1.75-38.65,9.19c-2.35-3.51-5.09-1.76-7.91-0.73c-1.14,0.42-3.08,2.45-3.39-1.08
			c-0.15-1.67-1.52-0.34-2.27-0.13c-2.51,0.7-4.99,1.51-7.72,2.35c4.26-11.94,23.31-26.38,39.64-26.18
			c17.88,0.23,30.84,10.15,43.74,23.08c-2.29-8.56-5.44-15.28-6.89-22.52c-2-9.96-3.31-19.84-1.07-29.98
			c3.65-16.53,14.73-25.56,30.06-30.44c2.48-0.79,5.07-1.23,8.19-1.97c-0.24,3.01-1.97,4.8-2.83,6.94
			c-0.33,0.83-4.74,3.49,0.62,4.13c1.34,0.16,0.17,1.82-0.35,2.28c-3.74,3.28-2.43,9.19-6.48,12.3c-0.39,0.3-0.65,1.55-0.44,1.72
			c3.74,3.15-0.41,4.66-1.67,5.88c-2.85,2.76-3.5,4.26,1.94,4.94C186.3,215.68,184.2,222.34,184.16,229.81z"/>
		<path class="st5" d="M308.87,310.76c8.06-12.27,17.44-22.99,32.23-27.28c10.34-3,25.31,2.61,30.92,11.39
			c-13.07,6.05-27.51,7.97-41.12,13.36c11.36,0.06,20.74,4.27,26.36,13.84c5.03,8.56,7.18,18.29,5.77,28.92
			c-1.17-5.38-6.58-5.21-9.77-7.24c-6.46-4.12-11.92-8.93-17.55-13.95c-2.47-2.2-5.05-4.13-6.8-6.98c-1-1.62-1.64-2.3-3.79-0.96
			c-1.65,1.03-2.2,1.23-1.63,3.33c2.08,7.68,3.55,15.41,1.5,23.46c-1.91,7.54-5.78,13.52-12.48,18.42
			c-0.75-2.12-0.57-3.61-0.12-5.19c0.42-1.5,2.02-3.64-1.63-3.39c-1.13,0.08-0.65-1.26-0.75-1.99c-0.86-6.23-1.06-12.59-3.49-18.53
			c-0.06-0.15-0.15-0.37-0.09-0.48c1.85-3.66,0.95-7.27-0.22-10.86c1.16,0.01,2.32-0.07,3.47,0.03c3.81,0.34,5.4-2.18,7.08-4.99
			c1.73-2.9,0.4-5.22-1.11-7.29C314.07,312.23,311.17,311.92,308.87,310.76z"/>
		<path class="st5" d="M291.75,320.23c-1.92-0.22-2.8,1.52-4.2,2.17c-2.31,1.06-3.28,6.31-7.3,2.61c-0.09-0.08-0.82,0.45-1.18,0.77
			c-5.16,4.56-11.69,6.08-17.97,8.2c-1.21,0.41-2.22,1.37-3.38,1.96c-1,0.51-1.88,2.29-2.98-0.43c-0.71-1.75-1.98,0.62-3.05,0.98
			c-1.47,0.49-2.78,2.63-4.3,1.38c-1.05-0.87-0.41-2.81-0.15-4.29c1.7-9.43,8.44-14.54,16.18-18.66c7.76-4.13,16.02-6.91,24.75-8.19
			c1.14-0.17,2.25-0.57,3.38-0.84c0.71-0.17,1.37-0.57,1.24-1.27c-0.11-0.54-0.7-1.06-1.19-1.43c-0.37-0.28-0.94-0.47-1.41-0.44
			c-5.23,0.33-9.68-3.61-15.33-2.46c-1.74,0.35-5.14-1.07-7.57-2.27c-3.64-1.79-7.07-4.15-11.39-4.01c-0.6,0.02-1.81,0.13-1.54-0.54
			c1.72-4.22-2.03-1.92-3.12-2.74c-1.28-0.96-3.86-0.1-4.12-1.98c-0.25-1.81,2.07-2.43,3.36-3.27c7.52-4.88,15.34-9.01,24.52-9.95
			c1.2-0.12,3.63,0.66,3.95-2.38c0.24-2.28-1.49-2.31-2.29-3.41c-1.97-2.7-3.18-5.93-6.23-8.08c15.54-3.77,33.63,8.18,37.5,24.43
			c1.45,6.06,1.58,12.19,0.49,18.32c-0.38,2.15-0.56,4.28-0.3,6.45c-1.62,0.71-3.57,0.67-4.72-0.22c-4.42-3.42-7.08-0.43-10.01,2.23
			C291.07,314.98,292.65,317.86,291.75,320.23z"/>
		<path class="st4" d="M109.41,259.66c11.01-10.94,24.09-13.18,38.65-9.19c2.86,0.78,5.68,1.74,8.57,2.37
			c1.56,0.34,2.39,0.94,2.39,2.54c-3.73,2.65-5.32,6.31-5.15,10.81c-5.96-0.16-7.64,4.91-10.36,8.61c-2.05,2.8-1.91,2.9-4.53,0.39
			c-1.07,2.26-1.68,4.96-3.35,6.51c-0.93,0.86-0.03,7.08-4.21,2.37c-0.03-0.03-0.7,0.29-0.77,0.53c-1.24,4.42-6.1,4.58-8.77,7.44
			c-2.61,2.8-7.57,3.09-8.67,7.77c-0.06,0.27-1.52,0.64-1.76,0.39c-3.57-3.53-4.25,0.01-5.76,2.13c-1.11,1.55-2.46,3.82-4.65,3.04
			c-2.12-0.75-0.97-3.21-0.99-4.87c-0.17-13.54,1.89-26.58,8.94-38.46C109.37,261.4,109.28,260.46,109.41,259.66z"/>
		<path class="st4" d="M170.2,272.68c-0.79,3.06,1.14,6.29-1.91,9.48c-1.53,1.6-0.48,5.97,0.36,9.12c0.39,1.48,2.36,5.3-2.64,4.06
			c-1.59-0.39-1.07,1.33-0.96,2.04c0.33,1.93,0.94,3.81,1.39,5.72c0.28,1.2,1.26,2.93-1.48,2.15c-0.81-0.23-1.33,0.46-1.06,1.14
			c1.91,4.68-1.3,8.6-2.12,12.79c-0.74,3.74-1.86,7.25-0.92,11.08c0.2,0.82-0.17,1.93-1.26,1.57c-5.34-1.76-3.35,2.2-3.19,4.25
			c0.15,1.94,1.32,4.3-0.57,5.45c-2.13,1.3-3.52-1.25-4.92-2.43c-6.78-5.72-9.48-13.48-9.65-21.99
			c-0.36-17.67,4.64-34.07,12.79-49.6c4.37,2.68,8.93,4.43,14.22,3.28C169.42,270.55,169.96,271.63,170.2,272.68z"/>
		<path class="st2" d="M170.2,272.68c-0.24-1.05-0.77-2.13-1.92-1.87c-5.29,1.16-9.85-0.59-14.22-3.28
			c-0.06-0.44-0.12-0.89-0.18-1.33c-0.17-4.5,1.42-8.17,5.15-10.81c1.93-0.23,3.85-0.69,5.73,0.29c1.72,0.9,3.03,3.31,5.26,2.39
			c3.24-1.35,6.5-2.98,7.11-7.09c3.02-1.03,5.94-3,9.29-1.88c2.55,0.85,4.61,2.7,5.23,5.38c0.72,3.18,0.27,6.37-2.61,8.42
			c-1.85,1.31-3.42,2.54-3.37,5c-2.08,1.23-1.74,3.96-3.17,5.39c-1.95,1.94-4.33,3.45-7.14,0.94
			C173.93,272.95,171.99,272.96,170.2,272.68z"/>
		<path class="st2" d="M291.75,320.23c0.91-2.37-0.68-5.25,1.65-7.36c2.94-2.66,5.6-5.65,10.01-2.23c1.15,0.89,3.11,0.93,4.72,0.22
			c0.25-0.01,0.49-0.04,0.73-0.1c2.3,1.16,5.2,1.47,6.78,3.61c1.51,2.07,2.84,4.39,1.11,7.29c-1.67,2.81-3.27,5.34-7.08,4.99
			c-1.15-0.1-2.31-0.03-3.47-0.03c-0.95-2.63-2.19-2.05-3.33-0.21c-0.77,1.25-1.31,2.65-1.91,4.01c-0.88,2.01-1.52,4.2-4.53,2.42
			c-2.32-1.38-4.37-2.66-2.13-5.65C297.08,323.52,291.58,322.93,291.75,320.23z"/>
		<path class="st3" d="M451.73,219.14c2.81-0.01,5.63,0.13,8.44-0.04c2.99-0.18,4.13,0.59,2.46,3.55
			c-3.14,5.57-6.24,11.16-9.36,16.73c-1.11,1.99-2.15,2.3-3.41,0.01c-3-5.44-6.12-10.82-9.18-16.23c-1.69-2.99-0.81-4.24,2.62-4.05
			C446.1,219.27,448.92,219.14,451.73,219.14z"/>
		<path class="st2" d="M292.64,345.61c2.79,3.82,1.83,7.73-2.88,13.34c-3.04,3.62-5.7,0.72-8.44-0.2c-2.25-0.76-2.86-2.68-2.27-4.85
			c0.75-2.71,1.56-5.42,2.57-8.04c0.88-2.27,2.44-3.69,4.99-2.08c2.41,1.52,2.75,0.75,1.89-1.56c-0.11-0.31-0.39-0.57-0.46-0.88
			c-0.65-3.11-0.52-6.73,2.62-7.64c2.7-0.79,6.37,1.39,7.41,3.86c0.96,2.3-1.08,5.25-3.43,7.01
			C294.07,345.02,292.99,344.62,292.64,345.61z M291.84,344.51c-0.1-0.11-0.2-0.31-0.31-0.32c-0.11-0.01-0.24,0.17-0.36,0.26
			c0.16,0.12,0.32,0.24,0.48,0.36C291.71,344.71,291.78,344.61,291.84,344.51z"/>
		<path class="st3" d="M522.92,169.78c-6.27,5.36-13.6,8.18-19.98,12.5c-1.46,0.99-2.14-0.11-2.09-1.98
			c0.2-6.49,0.19-12.99,0.14-19.48c-0.02-2.66,0.86-3.38,3.21-2.01C510.31,162.39,516.42,165.97,522.92,169.78z"/>
		<path class="st3" d="M438.56,120.9c4.22-7.53,7.89-14.1,11.58-20.67c1.07-1.91,2.09-1.12,2.86,0.22
			c3.44,5.96,6.8,11.97,10.25,17.93c1.32,2.28,0.03,2.52-1.76,2.52C454.19,120.9,446.89,120.9,438.56,120.9z"/>
		<path class="st3" d="M401.67,157.3c0,8.97,0,17,0,25.47c-6.54-3.58-12.67-6.81-18.67-10.27c-2.23-1.28-3.23-2.8,0.04-4.55
			C389.12,164.7,395.02,161.13,401.67,157.3z"/>
		<path class="st2" d="M191.7,285.91c2.26,0.01,6.41,7.8,6.27,11.76c-0.1,2.8-4.76,6.14-8.32,5.95c-3.15-0.17-7.89-7.35-7.69-11.65
			C182.09,289.22,187.42,285.9,191.7,285.91z"/>
		<path class="st2" d="M196.56,318.93c-3.37,0.07-7.54-5.46-7.51-9.96c0.02-3.61,3.28-5.93,8.55-6.08c3.34-0.1,8.2,6.15,8.33,10.69
			C206,316.43,201.82,318.82,196.56,318.93z"/>
		<path class="st2" d="M287.83,366.15c0.07,2.22-5.75,10.41-7.47,10.51c-3.23,0.19-9.21-3.81-9.17-6.13
			c0.08-4.25,3.79-10.21,6.38-10.25C280.73,360.24,287.77,364.26,287.83,366.15z"/>
		<path class="st3" d="M406.01,213.66c-0.49-3.64,2.28-6.11,2.16-9.4c-0.06-1.8,1.44-1.56,2.44-0.71c1.97,1.67,3.89,3.41,5.69,5.26
			c2.95,3.03,2.44,4.83-1.79,5.8c-2.22,0.51-4.45,0.68-6.67,1.56C404.52,217.5,406.34,214.46,406.01,213.66z"/>
		<path class="st3" d="M483.83,211.43c2.47-2.28,5-4.35,7.18-6.73c2.31-2.52,3.52-1.78,4.38,1.02c0.83,2.67,0.94,5.5,2.15,8.13
			c0.73,1.6-0.46,3.41-2.29,2.33C491.81,214.15,487.21,215.6,483.83,211.43z"/>
		<path class="st3" d="M497.49,126.51c-0.34,0.77-0.97,1.77-1.23,2.86c-0.66,2.76-0.25,7.71-2.92,7.44
			c-3.54-0.37-5.91-4.71-8.38-7.73c-0.79-0.96-0.55-1.78,0.8-2.13c3.28-0.87,6.55-1.79,9.83-2.67
			C497.3,123.81,497.59,124.82,497.49,126.51z"/>
		<path class="st3" d="M408.31,138.17c0.1-5.06-2.71-9.19-2.29-14.07c3.81,0.66,7.24,1.46,10.66,2.62c2.16,0.74,2.54,1.46,1.21,2.9
			C415.11,132.65,412.62,136.05,408.31,138.17z"/>
		<path class="st2" d="M189,281.41c0.1,4.5-3.36,4.59-5.86,5.01c-3.23,0.54-4.51-2.22-5.05-4.79c-0.6-2.85,2.9-5.55,6.75-5.57
			C188.93,276.05,187.62,279.88,189,281.41z"/>
		<path class="st0" d="M291.84,344.51c-0.06,0.1-0.13,0.2-0.19,0.3c-0.16-0.12-0.32-0.24-0.48-0.36c0.12-0.09,0.25-0.27,0.36-0.26
			C291.64,344.2,291.74,344.4,291.84,344.51z"/>
	</g>
</g>
</svg>
